<?xml version="1.0" encoding="UTF-8"?>
<svg version="1.1" xmlns="http://www.w3.org/2000/svg" width="512" height="512">
<path d="M0 0 C0.99825302 -0.0071553 1.99650604 -0.01431061 3.02500916 -0.02168274 C4.12427231 -0.02437164 5.22353546 -0.02706055 6.35610962 -0.02983093 C7.5106514 -0.03640213 8.66519318 -0.04297333 9.85472107 -0.04974365 C13.68802956 -0.06950879 17.52129886 -0.08114523 21.35464478 -0.09111023 C22.66069294 -0.09518576 23.9667411 -0.09926128 25.31236649 -0.10346031 C31.50922491 -0.12251091 37.70607142 -0.13674302 43.90295351 -0.14507228 C51.05879698 -0.1548491 58.21433148 -0.1811803 65.37006605 -0.22157317 C70.89963749 -0.25171687 76.42912027 -0.26653942 81.9587723 -0.26985329 C85.26220796 -0.27220558 88.56523753 -0.2831541 91.86860275 -0.30631447 C95.55349367 -0.33054774 99.2375704 -0.32976961 102.92251587 -0.32279968 C104.01773056 -0.33560974 105.11294525 -0.3484198 106.24134827 -0.36161804 C107.24524094 -0.35467422 108.24913361 -0.34773041 109.28344727 -0.34057617 C110.15470938 -0.34296453 111.02597149 -0.34535288 111.92363548 -0.34781361 C115.05298914 0.31271285 116.24774117 1.72961772 118.26870728 4.14717102 C119.39652076 6.40279799 119.40474382 7.64272353 119.42692566 10.14610291 C119.44160889 11.39972878 119.44160889 11.39972878 119.45658875 12.67868042 C119.46234421 13.59721298 119.46809967 14.51574554 119.47402954 15.46211243 C119.48392914 16.42800797 119.49382874 17.3939035 119.50402832 18.3890686 C119.53569944 21.59226503 119.56042293 24.7954763 119.58511353 27.99873352 C119.60567821 30.21548353 119.62667454 32.43222957 119.64808655 34.64897156 C119.7033574 40.49166153 119.75274455 46.33438718 119.80093384 52.17713928 C119.8511123 58.13593227 119.90681741 64.09467327 119.96206665 70.05342102 C120.06970953 81.7512933 120.17114086 93.44921067 120.26870728 105.14717102 C120.85431931 104.67693512 121.43993134 104.20669922 122.04328918 103.72221375 C125.21229996 101.479342 128.67494362 100.71165308 132.38198853 99.74873352 C133.22759338 99.52125931 134.07319824 99.2937851 134.94442749 99.05941772 C137.82105685 98.28810034 140.70099598 97.52999512 143.58120728 96.77217102 C145.63990132 96.22443217 147.69840775 95.67598779 149.75674438 95.12690735 C154.47376505 93.86997414 159.19226085 92.61872577 163.9112854 91.36933899 C171.75379951 89.29080048 179.58726417 87.17905787 187.42051697 85.06593323 C193.69495009 83.37352151 199.97128087 81.68820028 206.2481184 80.00473022 C210.73636424 78.80078921 215.22387693 77.59425888 219.70977783 76.38160706 C223.99466633 75.22366527 228.28179741 74.07441133 232.57068634 72.93137932 C234.16793512 72.50414272 235.76437889 72.07388359 237.3599472 71.64041328 C239.56580748 71.04165482 241.77432424 70.45387803 243.98379517 69.86860657 C245.22689957 69.53475449 246.47000397 69.2009024 247.7507782 68.85693359 C252.20016129 67.95924478 256.19781683 67.50450394 260.58432007 68.86578369 C267.43322483 74.07604636 268.96074334 90.93180764 271.06558228 99.11201477 C271.53119025 100.90499043 271.99728857 102.69783881 272.46383667 104.49057007 C273.46340136 108.33551666 274.4596554 112.18129974 275.45327759 116.02778625 C277.04531948 122.19070233 278.64473548 128.3516902 280.24526978 134.5124054 C282.19930335 142.03563399 284.15167194 149.55929058 286.10184479 157.08352089 C289.50508034 170.21328286 292.9212758 183.33962215 296.34683228 196.46357727 C296.59202417 197.40297842 296.83721607 198.34237957 297.08983803 199.31024742 C298.32272688 204.03349987 299.55586571 208.75668701 300.78912354 213.47984314 C303.03209563 222.07048799 305.27292091 230.6616929 307.51389503 239.25285912 C308.26405233 242.12867581 309.01425858 245.00447973 309.76448059 247.88027954 C313.02645236 260.3843477 316.28778696 272.88858195 319.54887199 285.39288139 C329.75775286 324.53747747 339.97188712 363.68069271 350.20100021 402.82000732 C350.94611015 405.6710362 351.69116841 408.52207859 352.43621826 411.37312317 C353.60423176 415.84259936 354.77244118 420.3120243 355.94080734 424.78140831 C356.36418857 426.40104602 356.78752349 428.02069584 357.21080399 429.64035988 C357.60541089 431.15024945 358.00013823 432.66010755 358.39499283 434.16993237 C358.7747749 435.62283002 359.15404571 437.07586141 359.53277206 438.52903461 C360.55550623 442.44755536 361.5935492 446.36142761 362.64849854 450.27140808 C362.9922274 451.55379191 362.9922274 451.55379191 363.34290028 452.86208248 C363.78290876 454.50223814 364.2264019 456.14146452 364.67402935 457.77955723 C367.84121715 469.6238926 367.84121715 469.6238926 366.26870728 474.14717102 C362.03800059 478.33559926 357.5879751 479.51166859 351.99795532 480.97773743 C351.07705707 481.2297674 350.15615881 481.48179737 349.20735455 481.74146461 C347.23708206 482.27916134 345.26530888 482.81138414 343.292202 483.3385849 C340.32597024 484.13185694 337.36445376 484.94070352 334.40386963 485.754776 C321.07532595 489.41276135 307.72243047 492.98202275 294.37295532 496.56269836 C289.49028007 497.87312404 284.60957252 499.19054754 279.7303772 500.51387024 C273.78281408 502.12687643 267.83207629 503.7276154 261.87888145 505.31970596 C259.62799364 505.92384359 257.37824245 506.53223368 255.12970924 507.14507675 C251.99262053 507.9991702 248.85168278 508.83739549 245.7093811 509.67207336 C244.79649826 509.92446777 243.88361542 510.17686218 242.94306946 510.43690491 C237.08746768 511.9697326 231.32115457 513.07055302 225.26870728 512.14717102 C220.91109101 509.46944732 220.09790684 505.24016224 218.92007446 500.51264954 C218.71658638 499.7430509 218.5130983 498.97345226 218.30344391 498.18053246 C217.62767797 495.61145308 216.97172559 493.03773211 216.31558228 490.46357727 C215.83589608 488.62378896 215.35497166 486.78432311 214.87289429 484.94515991 C213.84898491 481.02845561 212.83364881 477.10966853 211.82510376 473.1889801 C210.30278025 467.27144448 208.76122603 461.35904676 207.2159729 455.44746399 C204.25278234 444.09937114 201.31242206 432.74542191 198.3744545 421.39077759 C195.99771074 412.20843034 193.61602769 403.0273618 191.23493385 393.84614182 C190.62988847 391.51314024 190.02489655 389.1801248 189.41995811 386.84709549 C183.50161781 364.02314023 177.54937937 341.20814029 171.58120728 318.39717102 C171.11427465 316.61236155 170.64734553 314.82755117 170.18041992 313.04273987 C169.47959914 310.36391166 168.77877681 307.68508386 168.07795429 305.0062561 C167.60997207 303.21743601 167.14199296 301.42861511 166.67401695 299.6397934 C166.20644614 297.85255209 165.73885712 296.06531555 165.27124977 294.2780838 C161.52965918 279.97699076 157.79558948 265.67394564 154.06558228 251.36982727 C153.80453894 250.36881107 153.5434956 249.36779488 153.27454185 248.33644485 C150.98745226 239.56609366 148.70052026 230.7957014 146.41485596 222.02497864 C140.44279646 199.10860129 134.44964182 176.19781443 128.43945956 153.2914083 C127.5138963 149.76372654 126.5884793 146.23600642 125.66304779 142.7082901 C123.86507257 135.85454746 122.06694307 129.0008453 120.26870728 122.14717102 C120.26724206 123.36312164 120.26724206 123.36312164 120.26574725 124.60363692 C120.20751002 172.61907047 120.13373968 220.63445865 120.03972099 268.64983616 C120.02845246 274.4115615 120.01731407 280.17328708 120.0062561 285.93501282 C120.00405242 287.08209734 120.00184874 288.22918186 119.99957827 289.41102652 C119.96417935 307.99890518 119.93932987 326.58678381 119.91836026 345.17468371 C119.89661887 364.2391741 119.8635843 383.30362065 119.82000571 402.36807376 C119.79346034 414.13747057 119.77578624 425.90681271 119.76936124 437.67623798 C119.76411618 445.74048188 119.74792896 453.80465693 119.72304162 461.86886396 C119.70899634 466.52560474 119.69986707 471.18222215 119.70369911 475.83898544 C119.70709899 480.09964339 119.69680459 484.36003747 119.67547176 488.62064133 C119.67018543 490.16445262 119.66998819 491.70829118 119.67531165 493.25210234 C119.68180024 495.34667229 119.66995855 497.44036484 119.65346813 499.53486156 C119.65156953 500.69946382 119.64967093 501.86406607 119.64771479 503.0639593 C119.22552215 506.49848038 118.32378844 508.38828617 116.26870728 511.14717102 C113.83458378 512.36423277 112.26534568 512.28096321 109.54414368 512.29434204 C108.54733582 512.30149734 107.55052795 512.30865265 106.52351379 512.31602478 C104.87697563 512.32005814 104.87697563 512.32005814 103.19717407 512.32417297 C102.04423859 512.33074417 100.8913031 512.33731537 99.70343018 512.34408569 C95.8749282 512.36385243 92.04646548 512.37548821 88.21792603 512.38545227 C86.260726 512.39156556 86.260726 512.39156556 84.26398659 512.39780235 C78.07193152 512.41685471 71.87988839 512.43108551 65.68780965 512.43941432 C58.54046596 512.44918676 51.39343196 512.47550581 44.2461974 512.51591522 C38.72170584 512.54607777 33.19730305 512.56088332 27.67273074 512.56419533 C24.37317536 512.56654579 21.07402654 512.57747599 17.77454185 512.60065651 C14.09224974 512.62492032 10.41077111 512.62410586 6.72842407 512.61714172 C5.63680466 512.62995178 4.54518524 512.64276184 3.42048645 512.65596008 C-4.00624509 512.60466043 -4.00624509 512.60466043 -7.94752502 510.11779785 C-8.53616837 509.467491 -9.12481171 508.81718414 -9.73129272 508.14717102 C-10.28170227 508.79669487 -10.83211182 509.44621872 -11.39920044 510.11542511 C-14.20953073 512.56381753 -15.37437512 512.64918566 -19.04476929 512.65510559 C-20.12149902 512.66638489 -21.19822876 512.67766418 -22.30758667 512.68928528 C-23.48381592 512.68118835 -24.66004517 512.67309143 -25.87191772 512.66474915 C-27.73584167 512.67526306 -27.73584167 512.67526306 -29.63742065 512.68598938 C-33.04264458 512.70057975 -36.44689654 512.6971585 -39.85206604 512.68447304 C-43.4163137 512.67434218 -46.98051998 512.68373894 -50.54476929 512.6900177 C-56.53019666 512.6972939 -62.51542658 512.68770729 -68.50082397 512.6686554 C-75.4196823 512.64688648 -82.33806915 512.65393789 -89.25691605 512.67596102 C-95.19845235 512.69411597 -101.13984675 512.69667295 -107.08140182 512.68620634 C-110.62953163 512.67997184 -114.17743987 512.67913431 -117.72555542 512.69235229 C-121.68077913 512.7060578 -125.63547521 512.68705937 -129.59066772 512.66474915 C-130.76689697 512.67284607 -131.94312622 512.68094299 -133.15499878 512.68928528 C-134.23172852 512.67800598 -135.30845825 512.66672668 -136.41781616 512.65510559 C-137.35284973 512.65359749 -138.2878833 512.65208939 -139.25125122 512.65053558 C-142.61606826 511.96759151 -143.63457167 510.85436611 -145.73129272 508.14717102 C-146.23384005 504.86689764 -146.23384005 504.86689764 -146.2374506 500.87539005 C-146.24356396 500.13783011 -146.24967732 499.40027016 -146.25597593 498.64035991 C-146.2716457 496.15509174 -146.25868225 493.67078976 -146.24595642 491.18551636 C-146.25127863 489.39133362 -146.25834243 487.59715534 -146.26700348 485.80298561 C-146.28570101 480.86189631 -146.27930143 475.92110527 -146.26885045 470.98000324 C-146.26187853 465.65542956 -146.27784107 460.3309184 -146.29084778 455.00636292 C-146.31252685 444.57101501 -146.31235087 434.13577598 -146.30422223 423.70041294 C-146.29793074 415.22132513 -146.29905145 406.74226915 -146.30549431 398.26318169 C-146.30639596 397.05788512 -146.30729762 395.85258856 -146.3082266 394.61076785 C-146.31007774 392.16246763 -146.3119403 389.71416743 -146.31381416 387.26586723 C-146.33040628 364.28944834 -146.32166145 341.31309079 -146.30482858 318.33667558 C-146.29013072 297.30141014 -146.30475878 276.26628753 -146.33359874 255.23104049 C-146.36296906 233.64876726 -146.3739719 212.06656 -146.36441654 190.48426765 C-146.36339395 188.04450382 -146.36239935 185.60473998 -146.36143303 183.16497612 C-146.36095664 181.96447167 -146.36048025 180.76396721 -146.35998942 179.52708383 C-146.35782215 171.05595944 -146.36764604 162.58489728 -146.38220406 154.1137867 C-146.39969222 143.79338331 -146.39966067 133.47316206 -146.3768524 123.15276594 C-146.36567815 117.88428887 -146.36261958 112.61613312 -146.38115311 107.3476696 C-146.39788925 102.52823525 -146.39170046 97.70940417 -146.36693632 92.8900094 C-146.36202995 91.14308251 -146.36563106 89.39610759 -146.37842376 87.64922065 C-146.3945245 85.28034382 -146.38003859 82.91357363 -146.35770512 80.54479313 C-146.35743543 79.22743327 -146.35716574 77.91007342 -146.35688788 76.55279356 C-145.57295886 72.28523121 -144.08979842 70.8061337 -140.73129272 68.14717102 C-138.14102745 67.52634525 -138.14102745 67.52634525 -135.32879639 67.53244019 C-133.72209328 67.51779472 -133.72209328 67.51779472 -132.08293152 67.50285339 C-130.91807724 67.51768768 -129.75322296 67.53252197 -128.55307007 67.54780579 C-127.31845535 67.54386307 -126.08384064 67.53992035 -124.81181335 67.53585815 C-121.43333851 67.53030091 -118.05639748 67.54702625 -114.678123 67.5743382 C-111.14147048 67.59819476 -107.60483388 67.59522344 -104.06811523 67.59564209 C-98.13147767 67.60026725 -92.19516126 67.623892 -86.25863647 67.66011047 C-79.39380551 67.70188082 -72.52926347 67.7194277 -65.66431272 67.72273022 C-58.35457824 67.72632853 -51.04494777 67.74519796 -43.73525667 67.76985049 C-41.62868361 67.77608037 -39.52211847 67.77971583 -37.41553879 67.7828846 C-33.49383601 67.78987657 -29.57234798 67.81426051 -25.65072632 67.84077454 C-23.89737221 67.84177155 -23.89737221 67.84177155 -22.1085968 67.8427887 C-21.04310104 67.85276382 -19.97760529 67.86273895 -18.87982178 67.87301636 C-17.95253958 67.87766686 -17.02525738 67.88231737 -16.06987572 67.8871088 C-13.73129272 68.14717102 -13.73129272 68.14717102 -10.73129272 70.14717102 C-10.72542648 69.3564772 -10.71956024 68.56578339 -10.71351624 67.75112915 C-10.6555585 60.29138952 -10.58346455 52.83198273 -10.49557781 45.37254047 C-10.45089289 41.53775455 -10.41163289 37.7030744 -10.38485718 33.86811829 C-10.35880505 30.16559408 -10.31838984 26.46347731 -10.26810646 22.76120567 C-10.25145051 21.35030888 -10.23992829 19.93934163 -10.23367882 18.52836037 C-10.22402484 16.54872554 -10.19425321 14.56922002 -10.16366577 12.58979797 C-10.14701118 10.90102287 -10.14701118 10.90102287 -10.13002014 9.1781311 C-9.68380324 5.78617572 -8.75475212 3.88209208 -6.73129272 1.14717102 C-4.29555094 -0.07069987 -2.7231148 0.01336826 0 0 Z " fill="#B3B2B2" transform="translate(145.73129272460938,-0.1471710205078125)"/>
<path d="M0 0 C44.88 0 89.76 0 136 0 C136.25095062 66.77527027 136.25095062 66.77527027 136.35546875 94.94335938 C136.37938233 101.38761398 136.40330586 107.83186854 136.42724609 114.27612305 C136.43024503 115.0834911 136.43324396 115.89085915 136.43633378 116.72269291 C136.4843794 129.65356568 136.53298399 142.58443629 136.58180541 155.51530615 C136.63212457 168.84626789 136.68181905 182.17723186 136.73096704 195.50819796 C136.7611636 203.69368309 136.79181267 211.87916623 136.82309544 220.06464728 C136.84467805 225.72436077 136.86563876 231.38407638 136.88616979 237.04379378 C136.8979238 240.27942325 136.90998858 243.51505094 136.92262459 246.75067711 C137.01248353 269.83405462 137 292.91608825 137 316 C179.24 316 221.48 316 265 316 C265 378 265 378 262 383 C259.5658765 384.21706175 257.9966384 384.13379219 255.2754364 384.14717102 C254.27862854 384.15432632 253.28182068 384.16148163 252.25480652 384.16885376 C250.60826836 384.17288712 250.60826836 384.17288712 248.9284668 384.17700195 C247.19906357 384.18685875 247.19906357 384.18685875 245.4347229 384.19691467 C241.60622092 384.21668141 237.77775821 384.22831719 233.94921875 384.23828125 C231.99201873 384.24439454 231.99201873 384.24439454 229.99527931 384.25063133 C223.80322425 384.26968369 217.61118111 384.28391449 211.41910237 384.2922433 C204.27175868 384.30201574 197.12472469 384.32833479 189.97749013 384.36874419 C184.45299857 384.39890675 178.92859577 384.4137123 173.40402347 384.41702431 C170.10446808 384.41937477 166.80531927 384.43030496 163.50583458 384.45348549 C159.82354247 384.4777493 156.14206384 384.47693484 152.4597168 384.4699707 C151.36809738 384.48278076 150.27647797 384.49559082 149.15177917 384.50878906 C141.72504763 384.45748941 141.72504763 384.45748941 137.7837677 381.97062683 C137.19512436 381.32031998 136.60648102 380.67001312 136 380 C135.44959045 380.64952385 134.89918091 381.2990477 134.33209229 381.96825409 C131.52176199 384.41664651 130.3569176 384.50201464 126.68652344 384.50793457 C125.07142883 384.52485352 125.07142883 384.52485352 123.42370605 384.54211426 C122.24747681 384.53401733 121.07124756 384.52592041 119.859375 384.51757812 C117.99545105 384.52809204 117.99545105 384.52809204 116.09387207 384.53881836 C112.68864814 384.55340873 109.28439618 384.54998748 105.87922668 384.53730202 C102.31497902 384.52717116 98.75077274 384.53656792 95.18652344 384.54284668 C89.20109606 384.55012288 83.21586614 384.54053627 77.23046875 384.52148438 C70.31161042 384.49971546 63.39322358 384.50676687 56.47437668 384.52879 C50.53284038 384.54694495 44.59144598 384.54950193 38.6498909 384.53903532 C35.10176109 384.53280082 31.55385286 384.53196329 28.0057373 384.54518127 C24.05051359 384.55888678 20.09581752 384.53988835 16.140625 384.51757812 C14.96439575 384.52567505 13.7881665 384.53377197 12.57629395 384.54211426 C11.49956421 384.53083496 10.42283447 384.51955566 9.31347656 384.50793457 C8.37844299 384.50642647 7.44340942 384.50491837 6.4800415 384.50336456 C3.14297784 383.82605348 2.10260266 382.65685398 0 380 C-0.49679399 377.06663489 -0.49679399 377.06663489 -0.49219131 373.57320786 C-0.49680669 372.92701048 -0.50142207 372.2808131 -0.50617731 371.61503398 C-0.51680097 369.44051518 -0.49879324 367.26717111 -0.48101807 365.0927124 C-0.48276175 363.52183322 -0.48626293 361.95095516 -0.49137473 360.38008332 C-0.50033846 356.05637434 -0.48429207 351.73306008 -0.46426249 347.40940142 C-0.44702189 342.74957811 -0.45283178 338.08977786 -0.45587158 333.42993164 C-0.4579711 325.35411028 -0.44539908 317.27841798 -0.42292023 309.20262909 C-0.39044058 297.52635151 -0.37999734 285.85013647 -0.37496826 274.17381862 C-0.36620927 255.23075254 -0.3395773 236.28775527 -0.30175781 217.34472656 C-0.26505336 198.94108424 -0.23673393 180.53746059 -0.21972656 162.13378906 C-0.21867567 160.99978164 -0.21762477 159.86577421 -0.21654204 158.69740292 C-0.21132196 153.0085385 -0.20626711 147.31967395 -0.20129442 141.63080931 C-0.15981357 94.42047842 -0.08606557 47.21027479 0 0 Z " fill="#3498DA" transform="translate(0,128)"/>
<path d="M0 0 C42.24 0 84.48 0 128 0 C128 109.89 128 219.78 128 333 C85.76 333 43.52 333 0 333 C-0.59799184 322.83413866 -1.14752316 312.86817847 -1.12698364 302.71887207 C-1.12854363 301.49535931 -1.13010362 300.27184655 -1.13171089 299.01125765 C-1.13496786 295.67339606 -1.13385242 292.33559218 -1.13072467 288.99773431 C-1.12843585 285.37531367 -1.13196729 281.7528976 -1.13470459 278.13047791 C-1.13912442 271.0571194 -1.13820278 263.98377157 -1.13529195 256.91041267 C-1.13302294 251.1558148 -1.13273185 245.4012199 -1.13381577 239.6466217 C-1.133969 238.82400031 -1.13412223 238.00137892 -1.13428011 237.1538296 C-1.13459987 235.48209011 -1.13492408 233.81035063 -1.1352527 232.13861114 C-1.1380964 216.50498907 -1.13483793 200.87137289 -1.12945233 185.23775178 C-1.12498531 171.85690319 -1.12576155 158.47606328 -1.13037109 145.09521484 C-1.13573651 129.51312921 -1.13782181 113.93104873 -1.13475883 98.34896231 C-1.13444032 96.68376764 -1.13412595 95.01857297 -1.13381577 93.3533783 C-1.13366149 92.53431622 -1.13350721 91.71525415 -1.13334826 90.87137201 C-1.132489 85.13137422 -1.1339332 79.39137973 -1.13629532 73.65138245 C-1.13911542 66.64526131 -1.13830878 59.63915136 -1.13301457 52.63303149 C-1.13040719 49.06633173 -1.12932154 45.49965055 -1.13266373 41.93295097 C-1.13624784 38.04899972 -1.13193572 34.16507812 -1.12698364 30.28112793 C-1.12921436 29.17884873 -1.13144509 28.07656953 -1.13374341 26.94088793 C-1.11159551 17.89657929 -0.53396738 9.07744542 0 0 Z " fill="#FECB5C" transform="translate(137,111)"/>
<path d="M0 0 C45.21 0 90.42 0 137 0 C137 19.8 137 39.6 137 60 C179.24 60 221.48 60 265 60 C265 122 265 122 262 127 C259.5658765 128.21706175 257.9966384 128.13379219 255.2754364 128.14717102 C254.27862854 128.15432632 253.28182068 128.16148163 252.25480652 128.16885376 C250.60826836 128.17288712 250.60826836 128.17288712 248.9284668 128.17700195 C247.77553131 128.18357315 246.62259583 128.19014435 245.4347229 128.19691467 C241.60622092 128.21668141 237.77775821 128.22831719 233.94921875 128.23828125 C231.99201873 128.24439454 231.99201873 128.24439454 229.99527931 128.25063133 C223.80322425 128.26968369 217.61118111 128.28391449 211.41910237 128.2922433 C204.27175868 128.30201574 197.12472469 128.32833479 189.97749013 128.36874419 C184.45299857 128.39890675 178.92859577 128.4137123 173.40402347 128.41702431 C170.10446808 128.41937477 166.80531927 128.43030496 163.50583458 128.45348549 C159.82354247 128.4777493 156.14206384 128.47693484 152.4597168 128.4699707 C151.36809738 128.48278076 150.27647797 128.49559082 149.15177917 128.50878906 C141.72504763 128.45748941 141.72504763 128.45748941 137.7837677 125.97062683 C137.19512436 125.32031998 136.60648102 124.67001312 136 124 C135.44959045 124.64952385 134.89918091 125.2990477 134.33209229 125.96825409 C131.52176199 128.41664651 130.3569176 128.50201464 126.68652344 128.50793457 C125.6097937 128.51921387 124.53306396 128.53049316 123.42370605 128.54211426 C122.24747681 128.53401733 121.07124756 128.52592041 119.859375 128.51757812 C117.99545105 128.52809204 117.99545105 128.52809204 116.09387207 128.53881836 C112.68864814 128.55340873 109.28439618 128.54998748 105.87922668 128.53730202 C102.31497902 128.52717116 98.75077274 128.53656792 95.18652344 128.54284668 C89.20109606 128.55012288 83.21586614 128.54053627 77.23046875 128.52148438 C70.31161042 128.49971546 63.39322358 128.50676687 56.47437668 128.52879 C50.53284038 128.54694495 44.59144598 128.54950193 38.6498909 128.53903532 C35.10176109 128.53280082 31.55385286 128.53196329 28.0057373 128.54518127 C24.05051359 128.55888678 20.09581752 128.53988835 16.140625 128.51757812 C14.96439575 128.52567505 13.7881665 128.53377197 12.57629395 128.54211426 C11.49956421 128.53083496 10.42283447 128.51955566 9.31347656 128.50793457 C8.37844299 128.50642647 7.44340942 128.50491837 6.4800415 128.50336456 C3.16866469 127.83126704 1.99689753 126.6961367 0 124 C-0.49219131 121.57125473 -0.49219131 121.57125473 -0.48101807 118.8114624 C-0.48652805 117.76478268 -0.49203804 116.71810295 -0.497715 115.63970566 C-0.48332256 114.49242115 -0.46893013 113.34513664 -0.45410156 112.16308594 C-0.4545837 110.93349277 -0.45506584 109.70389961 -0.45556259 108.43704605 C-0.45307017 105.11361259 -0.43329971 101.79117928 -0.40512085 98.46792603 C-0.38232463 95.34858798 -0.3812675 92.22927473 -0.37841797 89.10986328 C-0.35743674 79.98983253 -0.30159198 70.86990896 -0.25 61.75 C-0.1675 41.3725 -0.085 20.995 0 0 Z " fill="#3396D9" transform="translate(0,384)"/>
<path d="M0 0 C0.99825302 -0.0071553 1.99650604 -0.01431061 3.02500916 -0.02168274 C4.12427231 -0.02437164 5.22353546 -0.02706055 6.35610962 -0.02983093 C7.5106514 -0.03640213 8.66519318 -0.04297333 9.85472107 -0.04974365 C13.68802956 -0.06950879 17.52129886 -0.08114523 21.35464478 -0.09111023 C22.66069294 -0.09518576 23.9667411 -0.09926128 25.31236649 -0.10346031 C31.50922491 -0.12251091 37.70607142 -0.13674302 43.90295351 -0.14507228 C51.05879698 -0.1548491 58.21433148 -0.1811803 65.37006605 -0.22157317 C70.89963749 -0.25171687 76.42912027 -0.26653942 81.9587723 -0.26985329 C85.26220796 -0.27220558 88.56523753 -0.2831541 91.86860275 -0.30631447 C95.55349367 -0.33054774 99.2375704 -0.32976961 102.92251587 -0.32279968 C104.01773056 -0.33560974 105.11294525 -0.3484198 106.24134827 -0.36161804 C107.24524094 -0.35467422 108.24913361 -0.34773041 109.28344727 -0.34057617 C110.15470938 -0.34296453 111.02597149 -0.34535288 111.92363548 -0.34781361 C115.05298914 0.31271285 116.24774117 1.72961772 118.26870728 4.14717102 C119.42927121 6.4682989 119.39204465 7.79044727 119.38896179 10.37388611 C119.39033929 11.25827677 119.39171679 12.14266743 119.39313602 13.0538578 C119.38953792 14.03033964 119.38593981 15.00682148 119.38223267 16.01289368 C119.38241347 17.57442452 119.38241347 17.57442452 119.38259792 19.16750145 C119.38184949 22.54876695 119.37422437 25.92997784 119.36636353 29.31123352 C119.36489389 31.39415968 119.36387331 33.47708621 119.36331177 35.56001282 C119.35806136 43.2974045 119.34410025 51.03478829 119.33120728 58.77217102 C119.31058228 76.05592102 119.28995728 93.33967102 119.26870728 111.14717102 C77.02870728 111.14717102 34.78870728 111.14717102 -8.73129272 111.14717102 C-8.73129272 116.75717102 -8.73129272 122.36717102 -8.73129272 128.14717102 C-53.94129272 128.14717102 -99.15129272 128.14717102 -145.73129272 128.14717102 C-145.73129272 73.14717102 -145.73129272 73.14717102 -140.73129272 68.14717102 C-138.14102745 67.52634525 -138.14102745 67.52634525 -135.32879639 67.53244019 C-133.72209328 67.51779472 -133.72209328 67.51779472 -132.08293152 67.50285339 C-130.91807724 67.51768768 -129.75322296 67.53252197 -128.55307007 67.54780579 C-127.31845535 67.54386307 -126.08384064 67.53992035 -124.81181335 67.53585815 C-121.43333851 67.53030091 -118.05639748 67.54702625 -114.678123 67.5743382 C-111.14147048 67.59819476 -107.60483388 67.59522344 -104.06811523 67.59564209 C-98.13147767 67.60026725 -92.19516126 67.623892 -86.25863647 67.66011047 C-79.39380551 67.70188082 -72.52926347 67.7194277 -65.66431272 67.72273022 C-58.35457824 67.72632853 -51.04494777 67.74519796 -43.73525667 67.76985049 C-41.62868361 67.77608037 -39.52211847 67.77971583 -37.41553879 67.7828846 C-33.49383601 67.78987657 -29.57234798 67.81426051 -25.65072632 67.84077454 C-23.89737221 67.84177155 -23.89737221 67.84177155 -22.1085968 67.8427887 C-21.04310104 67.85276382 -19.97760529 67.86273895 -18.87982178 67.87301636 C-17.95253958 67.87766686 -17.02525738 67.88231737 -16.06987572 67.8871088 C-13.73129272 68.14717102 -13.73129272 68.14717102 -10.73129272 70.14717102 C-10.72542648 69.3564772 -10.71956024 68.56578339 -10.71351624 67.75112915 C-10.6555585 60.29138952 -10.58346455 52.83198273 -10.49557781 45.37254047 C-10.45089289 41.53775455 -10.41163289 37.7030744 -10.38485718 33.86811829 C-10.35880505 30.16559408 -10.31838984 26.46347731 -10.26810646 22.76120567 C-10.25145051 21.35030888 -10.23992829 19.93934163 -10.23367882 18.52836037 C-10.22402484 16.54872554 -10.19425321 14.56922002 -10.16366577 12.58979797 C-10.14701118 10.90102287 -10.14701118 10.90102287 -10.13002014 9.1781311 C-9.68380324 5.78617572 -8.75475212 3.88209208 -6.73129272 1.14717102 C-4.29555094 -0.07069987 -2.7231148 0.01336826 0 0 Z " fill="#FCC95B" transform="translate(145.73129272460938,-0.1471710205078125)"/>
<path d="M0 0 C44.88 0 89.76 0 136 0 C136 21.12 136 42.24 136 64 C131.49982874 68.50017126 131.49982874 68.50017126 126.68652344 68.50793457 C125.6097937 68.51921387 124.53306396 68.53049316 123.42370605 68.54211426 C121.65936218 68.52996887 121.65936218 68.52996887 119.859375 68.51757812 C117.99545105 68.52809204 117.99545105 68.52809204 116.09387207 68.53881836 C112.68864814 68.55340873 109.28439618 68.54998748 105.87922668 68.53730202 C102.31497902 68.52717116 98.75077274 68.53656792 95.18652344 68.54284668 C89.20109606 68.55012288 83.21586614 68.54053627 77.23046875 68.52148438 C70.31161042 68.49971546 63.39322358 68.50676687 56.47437668 68.52879 C50.53284038 68.54694495 44.59144598 68.54950193 38.6498909 68.53903532 C35.10176109 68.53280082 31.55385286 68.53196329 28.0057373 68.54518127 C24.05051359 68.55888678 20.09581752 68.53988835 16.140625 68.51757812 C14.96439575 68.52567505 13.7881665 68.53377197 12.57629395 68.54211426 C10.96119934 68.52519531 10.96119934 68.52519531 9.31347656 68.50793457 C8.37844299 68.50642647 7.44340942 68.50491837 6.4800415 68.50336456 C4 68 4 68 0 64 C0 42.88 0 21.76 0 0 Z " fill="#3498DB" transform="translate(0,444)"/>
<path d="M0 0 C6.7113836 5.08807013 8.18009727 21.14280423 10.25683594 29.12109375 C10.9380348 31.73391466 11.63012556 34.34368742 12.32324219 36.95336914 C12.76138964 38.62181904 13.19891261 40.29043309 13.63574219 41.95922852 C13.94502655 43.12330482 13.94502655 43.12330482 14.26055908 44.31089783 C15.15614366 47.77749587 15.68261719 50.66953368 15.68261719 54.27563477 C14.78675903 54.50899536 14.78675903 54.50899536 13.87280273 54.74707031 C1.24208617 58.03789187 -11.38557151 61.33985995 -24.00683594 64.66674805 C-27.94339884 65.70413054 -31.88041712 66.73978216 -35.81738281 67.77563477 C-37.40071825 68.19229342 -38.98405159 68.60896008 -40.56738281 69.02563477 C-64.31738281 75.27563477 -64.31738281 75.27563477 -88.06738281 81.52563477 C-88.85193848 81.73220703 -89.63649414 81.9387793 -90.44482422 82.15161133 C-92.01980037 82.56585696 -93.59499425 82.97927569 -95.17041016 83.3918457 C-99.25883213 84.46369126 -103.34187996 85.55193433 -107.41894531 86.66625977 C-108.26005859 86.8937793 -109.10117187 87.12129883 -109.96777344 87.35571289 C-111.55908886 87.78651099 -113.14906524 88.22230298 -114.73730469 88.66430664 C-118.52000737 89.68259818 -122.18963694 90.43629033 -126.09033203 90.83911133 C-126.88623749 90.9227594 -127.68214294 91.00640747 -128.50216675 91.09259033 C-129.10118805 91.152995 -129.70020935 91.21339966 -130.31738281 91.27563477 C-131.90339955 85.51903823 -133.46909238 79.75741528 -135.01708984 73.99047852 C-135.54521512 72.03393386 -136.0786363 70.07881004 -136.61767578 68.12524414 C-143.30759716 43.84790421 -143.30759716 43.84790421 -141.31738281 37.27563477 C-137.57669827 33.31022092 -133.2412047 32.08794694 -128.10644531 30.77954102 C-127.2622554 30.55348175 -126.41806549 30.32742249 -125.54829407 30.09451294 C-122.68270059 29.33036108 -119.81273 28.58421599 -116.94238281 27.83813477 C-114.88814227 27.29535007 -112.83419649 26.75144879 -110.78051758 26.20654297 C-107.3390556 25.29449305 -103.89711034 24.38444893 -100.45381165 23.47935486 C-90.45689629 20.85135469 -80.47493733 18.16978511 -70.49523163 15.47724342 C-65.11107906 14.02579852 -59.72536745 12.58015166 -54.33957672 11.134799 C-49.85077294 9.92998061 -45.36265583 8.72273032 -40.8760376 7.50979614 C-36.59123479 6.35186741 -32.30417 5.20270168 -28.01534081 4.05978012 C-26.41811605 3.63258037 -24.82169891 3.20234808 -23.22616005 2.7688942 C-21.02029342 2.17013267 -18.81177091 1.58234973 -16.60229492 0.99707031 C-15.35919052 0.66321823 -14.11608612 0.32936615 -12.83531189 -0.01460266 C-8.45418423 -0.89852055 -4.31327926 -1.34824058 0 0 Z " fill="#B3B2B2" transform="translate(406.3173828125,68.724365234375)"/>
<path d="M0 0 C1.73897497 6.49310307 3.46496606 12.98955558 5.18188477 19.48852539 C5.76774992 21.69993488 6.35660576 23.91055426 6.94848633 26.12036133 C7.79771979 29.29306339 8.63622978 32.4684323 9.47265625 35.64453125 C9.74030289 36.63524124 10.00794952 37.62595123 10.28370667 38.64668274 C10.52403122 39.56741074 10.76435577 40.48813873 11.01196289 41.43676758 C11.33506187 42.65255241 11.33506187 42.65255241 11.66468811 43.89289856 C12 46 12 46 11 49 C8.55665152 49.75967053 6.25001324 50.3184637 3.75 50.8125 C-2.77269054 52.22020557 -9.16481455 53.85511205 -15.5625 55.75 C-26.09043737 58.83591281 -36.71851545 61.48805214 -47.36938477 64.10839844 C-56.27658927 66.30169311 -65.14242558 68.61571311 -74 71 C-77.08210261 71.81720268 -80.16591326 72.6278218 -83.25 73.4375 C-84.8697935 73.86327429 -86.48958511 74.28905575 -88.109375 74.71484375 C-88.91826172 74.92737793 -89.72714844 75.13991211 -90.56054688 75.35888672 C-93.75313977 76.19793285 -96.94546907 77.037978 -100.13769531 77.87841797 C-101.70461771 78.29071483 -103.2716738 78.70250396 -104.83886719 79.11376953 C-108.99987966 80.20635971 -113.15786949 81.3091486 -117.3125 82.42578125 C-118.18068359 82.6578125 -119.04886719 82.88984375 -119.94335938 83.12890625 C-121.61213882 83.57510396 -123.28014879 84.02419241 -124.94726562 84.4765625 C-128.04362532 85.30190343 -130.78039042 86 -134 86 C-135.55523104 80.30932902 -137.10324337 74.61676046 -138.64477539 68.92236328 C-139.16951706 66.98791371 -139.69618229 65.05398481 -140.22485352 63.12060547 C-140.98707718 60.33177205 -141.74222419 57.54110168 -142.49609375 54.75 C-142.73154404 53.89446533 -142.96699432 53.03893066 -143.20957947 52.1574707 C-144.56658149 47.10154332 -145.4721865 42.20986065 -146 37 C-145.43716309 36.86948242 -144.87432617 36.73896484 -144.29443359 36.60449219 C-134.43448123 34.30979775 -124.6299576 31.96367924 -114.91796875 29.09765625 C-109.65057847 27.58475815 -104.31993895 26.31277569 -99 25 C-92.63596099 23.42856629 -86.29012322 21.85003624 -80 20 C-72.65840212 17.8407065 -65.23244183 16.04517512 -57.8046875 14.2109375 C-51.43951582 12.63160919 -45.13508902 10.92345444 -38.84375 9.0703125 C-32.38223678 7.27107 -25.86327574 5.6960227 -19.34765625 4.10546875 C-15.36829192 3.12744553 -11.46823159 2.16216278 -7.59375 0.8203125 C-4.8951977 -0.03314531 -2.80773922 -0.06157323 0 0 Z " fill="#F59321" transform="translate(423,123)"/>
<path d="M0 0 C2.27014955 3.40522432 3.15097119 6.694304 4.1640625 10.59765625 C4.36099701 11.34655624 4.55793152 12.09545624 4.76083374 12.86705017 C5.17565163 14.45410735 5.58732805 16.04198847 5.99609375 17.63061523 C6.61730222 20.03273387 7.257298 22.42930793 7.8984375 24.82617188 C12.66001339 42.96504685 12.66001339 42.96504685 11 48 C6.77456222 52.19117312 2.31680571 53.36514329 -3.27075195 54.83056641 C-4.65209934 55.20861136 -4.65209934 55.20861136 -6.06135273 55.59429359 C-8.03162522 56.13199032 -10.00339839 56.66421312 -11.97650528 57.19141388 C-14.94273704 57.98468592 -17.90425351 58.79353249 -20.86483765 59.60760498 C-34.19338132 63.26559033 -47.54627681 66.83485173 -60.89575195 70.41552734 C-65.7784272 71.72595302 -70.65913476 73.04337652 -75.53833008 74.36669922 C-81.4858932 75.97970541 -87.43663098 77.58044438 -93.38982582 79.17253494 C-95.64071364 79.77667257 -97.89046482 80.38506266 -100.13899803 80.99790573 C-103.27608675 81.85199918 -106.41702449 82.69022447 -109.55932617 83.52490234 C-110.92865044 83.90349396 -110.92865044 83.90349396 -112.32563782 84.28973389 C-126.5326096 88.00870942 -126.5326096 88.00870942 -132.45019531 84.58056641 C-134.7136693 80.8116754 -135.72415179 76.95325772 -136.796875 72.7109375 C-137.0353717 71.8113028 -137.27386841 70.91166809 -137.51959229 69.98477173 C-138.27592087 67.11804441 -139.01283839 64.24670849 -139.75 61.375 C-140.26051772 59.43457945 -140.77222329 57.494471 -141.28515625 55.5546875 C-142.21489747 52.01397492 -143.1436793 48.47308053 -144.05371094 44.92724609 C-144.23705994 44.21539154 -144.42040894 43.50353699 -144.60931396 42.77011108 C-145 41 -145 41 -145 39 C-144.4423999 38.86948242 -143.8847998 38.73896484 -143.31030273 38.60449219 C-133.09937184 36.20883054 -122.91214104 33.7731461 -112.7890625 31.02734375 C-108.44834356 29.85042717 -104.09998834 28.70456999 -99.75 27.5625 C-98.94336914 27.35020752 -98.13673828 27.13791504 -97.30566406 26.91918945 C-93.40039038 25.89158809 -89.49424959 24.86754878 -85.5859375 23.8515625 C-77.28714935 21.68861462 -69.01220556 19.45415954 -60.75073242 17.15234375 C-48.32951758 13.69245945 -35.88895421 10.40026698 -23.36157227 7.34619141 C-17.54865802 5.92249693 -11.8192684 4.39908642 -6.12768555 2.54418945 C-4 2 -4 2 0 2 C0 1.34 0 0.68 0 0 Z " fill="#B3B2B2" transform="translate(501,426)"/>
<path d="M0 0 C0.7354303 -0.00700928 1.4708606 -0.01401855 2.22857666 -0.02124023 C4.65537467 -0.03882069 7.08100299 -0.02719827 9.5078125 -0.01367188 C11.1964541 -0.0163668 12.88509418 -0.02024922 14.57373047 -0.02526855 C18.11115304 -0.03116364 21.64817133 -0.02260061 25.18554688 -0.00390625 C29.71870095 0.01888364 34.25090777 0.00576057 38.7840271 -0.01819611 C42.27049897 -0.03265401 45.75674645 -0.0280482 49.2432251 -0.01768494 C50.91457227 -0.01501761 52.58593985 -0.01828764 54.25726318 -0.02760315 C56.59393225 -0.03776907 58.92906994 -0.02226936 61.265625 0 C61.95561584 -0.00809692 62.64560669 -0.01619385 63.35650635 -0.02453613 C66.66909478 0.03391824 68.37378956 0.3183003 71.03076172 2.36242676 C73.93141225 6.2645134 73.77282531 9.66382743 73.80981445 14.38818359 C73.81638565 15.08284729 73.82295685 15.77751099 73.82972717 16.4932251 C73.84942644 18.79040641 73.8611141 21.0875225 73.87109375 23.38476562 C73.87516928 24.17011814 73.8792448 24.95547066 73.88344383 25.76462173 C73.90428845 29.92006415 73.91859808 34.07547368 73.92797852 38.23095703 C73.93905024 42.52068992 73.97346302 46.80990513 74.01315022 51.09945488 C74.03930085 54.40061402 74.04766885 57.70164937 74.05125999 61.00290298 C74.05612863 62.58414335 74.06775063 64.1653781 74.08629799 65.74651718 C74.11066179 67.96082349 74.10973055 70.17378413 74.1027832 72.38818359 C74.10864944 73.64710419 74.11451569 74.90602478 74.12055969 76.20309448 C73.54603674 80.1072624 72.38089762 81.74157975 69.6328125 84.51757812 C66.67312202 85.99742337 63.99538963 85.67764725 60.69213867 85.71044922 C59.97811386 85.71862671 59.26408905 85.7268042 58.52842712 85.73522949 C56.16088705 85.76008114 53.79340693 85.77659893 51.42578125 85.79101562 C50.61744654 85.7963393 49.80911182 85.80166298 48.97628212 85.80714798 C44.69765801 85.83387876 40.41906307 85.85325372 36.14038086 85.86767578 C31.72159481 85.88432248 27.30355478 85.92909981 22.88505077 85.98004723 C19.48695522 86.01370817 16.089037 86.02525187 12.69079018 86.03090286 C11.06207898 86.03761875 9.43337959 86.05284977 7.80483055 86.07679367 C5.52315926 86.10842564 3.24350304 86.10848624 0.96166992 86.10107422 C-0.98452995 86.1132045 -0.98452995 86.1132045 -2.970047 86.12557983 C-7.36191918 85.33954647 -8.79593904 84.13848694 -11.3671875 80.51757812 C-11.85858864 77.81129698 -12.04423702 75.7341452 -11.99829102 73.03686523 C-12.00544632 72.30128891 -12.01260162 71.56571259 -12.01997375 70.80784607 C-12.03682734 68.38623179 -12.01748214 65.96647749 -11.99609375 63.54492188 C-11.99692268 61.85771024 -11.99938297 60.17049868 -12.00340271 58.48329163 C-12.00625828 54.95174782 -11.99158213 51.42083911 -11.96411133 47.8894043 C-11.93000223 43.36409368 -11.9360574 38.8399165 -11.9547739 34.31455135 C-11.96534416 30.83234721 -11.9564064 27.35040664 -11.94138908 23.86822701 C-11.93620872 22.19968003 -11.93668732 20.53110551 -11.94293404 18.86256218 C-11.94838785 16.5307383 -11.92800972 14.20053557 -11.90063477 11.86889648 C-11.90716064 11.18047668 -11.91368652 10.49205688 -11.92041016 9.78277588 C-11.85795882 6.65272074 -11.50825035 4.73525044 -9.79429626 2.09046936 C-6.54999051 -0.01200753 -3.74440708 -0.04393997 0 0 Z " fill="#B2B2B3" transform="translate(37.3671875,153.482421875)"/>
<path d="M0 0 C42.57 0 85.14 0 129 0 C129 45 129 45 126 50 C123.56425821 51.21787089 121.99182208 51.13380276 119.26870728 51.14717102 C118.27045425 51.15432632 117.27220123 51.16148163 116.24369812 51.16885376 C114.59480339 51.17288712 114.59480339 51.17288712 112.91259766 51.17700195 C111.18078499 51.18685875 111.18078499 51.18685875 109.41398621 51.19691467 C105.58067771 51.21667981 101.74740841 51.22831625 97.9140625 51.23828125 C96.60801434 51.24235678 95.30196617 51.2464323 93.95634079 51.25063133 C87.75948236 51.26968193 81.56263585 51.28391404 75.36575377 51.2922433 C68.2099103 51.30202012 61.0543758 51.32835132 53.89864123 51.36874419 C48.36906978 51.39888789 42.839587 51.41371044 37.30993497 51.41702431 C34.00649932 51.4193766 30.70346974 51.43032512 27.40010452 51.45348549 C23.7152136 51.47771876 20.03113687 51.47694063 16.34619141 51.4699707 C15.25097672 51.48278076 14.15576202 51.49559082 13.02735901 51.50878906 C12.02346634 51.50184525 11.01957367 51.49490143 9.98526001 51.48774719 C8.67836684 51.49132972 8.67836684 51.49132972 7.34507179 51.49498463 C4.21571813 50.83445817 3.0209661 49.4175533 1 47 C-6.00793201 32.98413597 0 15.67021236 0 0 Z " fill="#FECB5C" transform="translate(136,461)"/>
<path d="M0 0 C0.99825302 -0.0071553 1.99650604 -0.01431061 3.02500916 -0.02168274 C4.12427231 -0.02437164 5.22353546 -0.02706055 6.35610962 -0.02983093 C7.5106514 -0.03640213 8.66519318 -0.04297333 9.85472107 -0.04974365 C13.68802956 -0.06950879 17.52129886 -0.08114523 21.35464478 -0.09111023 C22.66069294 -0.09518576 23.9667411 -0.09926128 25.31236649 -0.10346031 C31.50922491 -0.12251091 37.70607142 -0.13674302 43.90295351 -0.14507228 C51.05879698 -0.1548491 58.21433148 -0.1811803 65.37006605 -0.22157317 C70.89963749 -0.25171687 76.42912027 -0.26653942 81.9587723 -0.26985329 C85.26220796 -0.27220558 88.56523753 -0.2831541 91.86860275 -0.30631447 C95.55349367 -0.33054774 99.2375704 -0.32976961 102.92251587 -0.32279968 C104.01773056 -0.33560974 105.11294525 -0.3484198 106.24134827 -0.36161804 C107.24524094 -0.35467422 108.24913361 -0.34773041 109.28344727 -0.34057617 C110.15470938 -0.34296453 111.02597149 -0.34535288 111.92363548 -0.34781361 C115.05298914 0.31271285 116.24774117 1.72961772 118.26870728 4.14717102 C125.27663929 18.16303505 119.26870728 35.47695866 119.26870728 51.14717102 C76.69870728 51.14717102 34.12870728 51.14717102 -9.73129272 51.14717102 C-9.73129272 6.14717102 -9.73129272 6.14717102 -6.73129272 1.14717102 C-4.29555094 -0.07069987 -2.7231148 0.01336826 0 0 Z " fill="#FFCC5C" transform="translate(145.73129272460938,-0.1471710205078125)"/>
<path d="M0 0 C1.06969025 -0.01265396 2.13938049 -0.02530792 3.2414856 -0.03834534 C4.98641045 -0.02080704 4.98641045 -0.02080704 6.7665863 -0.00291443 C8.61609894 -0.01364738 8.61609894 -0.01364738 10.50297546 -0.02459717 C13.87736097 -0.03859567 17.25021095 -0.03019097 20.62447095 -0.01050687 C24.15801213 0.00589795 27.69150389 -0.00293562 31.22506714 -0.00802612 C37.15749235 -0.01254448 43.08960198 0.00330785 49.0219574 0.03126526 C55.87893562 0.06333112 62.73534522 0.0632951 69.59236389 0.04605049 C76.19241559 0.03018418 82.79225897 0.03691855 89.39230156 0.0539875 C92.1996764 0.06085697 95.00688419 0.0598268 97.81425667 0.05244255 C101.73348278 0.0433555 105.6521249 0.06731804 109.5712738 0.09474182 C111.319235 0.084953 111.319235 0.084953 113.10250854 0.07496643 C114.16937897 0.08769089 115.23624939 0.10041534 116.33544922 0.11352539 C117.26180963 0.11633231 118.18817003 0.11913923 119.14260197 0.12203121 C121.60423279 0.62818909 121.60423279 0.62818909 125.60423279 4.62818909 C125.60423279 17.49818909 125.60423279 30.36818909 125.60423279 43.62818909 C80.72423279 43.62818909 35.84423279 43.62818909 -10.39576721 43.62818909 C-10.39576721 0.00657698 -10.39576721 0.00657698 0 0 Z " fill="#3397DA" transform="translate(10.395767211914063,67.37181091308594)"/>
<path d="M0 0 C45.21 0 90.42 0 137 0 C137 5.61 137 11.22 137 17 C179.24 17 221.48 17 265 17 C265 22.61 265 28.22 265 34 C222.43 34 179.86 34 136 34 C136 28.39 136 22.78 136 17 C91.12 17 46.24 17 0 17 C0 11.39 0 5.78 0 0 Z " fill="#013E5E" transform="translate(0,427)"/>
<path d="M0 0 C42.57 0 85.14 0 129 0 C129 5.61 129 11.22 129 17 C86.76 17 44.52 17 1 17 C1 22.61 1 28.22 1 34 C-44.21 34 -89.42 34 -136 34 C-136 28.39 -136 22.78 -136 17 C-91.12 17 -46.24 17 0 17 C0 11.39 0 5.78 0 0 Z " fill="#003D5C" transform="translate(136,94)"/>
<path d="M0 0 C0.33 0 0.66 0 1 0 C1 2.64 1 5.28 1 8 C43.24 8 85.48 8 129 8 C129 19.55 129 31.1 129 43 C86.76 43 44.52 43 1 43 C0.38611067 32.56388135 -0.14202389 22.35512905 -0.0625 11.9375 C-0.05798828 10.77412109 -0.05347656 9.61074219 -0.04882812 8.41210938 C-0.03728863 5.60801286 -0.02101978 2.80403858 0 0 Z " fill="#694017" transform="translate(136,401)"/>
<path d="M0 0 C0.50980881 1.70543184 1.00738268 3.41452318 1.5 5.125 C1.91765625 6.55199219 1.91765625 6.55199219 2.34375 8.0078125 C3.02257018 11.10290926 3.04603818 13.8425484 3 17 C2.28158936 17.1858667 1.56317871 17.3717334 0.82299805 17.56323242 C-6.31134019 19.40954613 -13.4448701 21.2589519 -20.57763672 23.11132812 C-22.61038649 23.63916442 -24.64322861 24.16664562 -26.67626953 24.69335938 C-35.55136123 26.99451594 -44.39802695 29.38284246 -53.23046875 31.84301758 C-66.72640849 35.60008668 -80.26307355 39.11776745 -93.86328125 42.4765625 C-101.71428616 44.41645998 -109.52086215 46.50642249 -117.32324219 48.63330078 C-119.86002451 49.32295459 -122.39865211 50.00549433 -124.9375 50.6875 C-125.71939697 50.90229004 -126.50129395 51.11708008 -127.30688477 51.33837891 C-132.20328899 52.64848514 -136.95682448 53.47789651 -142 54 C-142.67184618 51.89748139 -143.33730968 49.79292237 -144 47.6875 C-144.37125 46.51574219 -144.7425 45.34398437 -145.125 44.13671875 C-146 41 -146 41 -146 38 C-133.03518695 34.16948705 -120.01257525 30.7048804 -106.88671875 27.46875 C-100.0983921 25.79031759 -93.37713618 24.00999077 -86.671875 22.02734375 C-80.41944219 20.27799287 -74.10643846 18.76711851 -67.80371094 17.21069336 C-62.50620465 15.89627763 -57.23739287 14.54040967 -52 13 C-44.67222448 10.84477191 -37.26058955 9.0512115 -29.84643555 7.22192383 C-23.0848576 5.54530937 -16.38371325 3.75212584 -9.70703125 1.76171875 C-6.48642055 0.8554863 -3.35831833 0 0 0 Z " fill="#F59321" transform="translate(498,411)"/>
<path d="M0 0 C0.67364661 2.08108685 1.33866798 4.1649671 2 6.25 C2.37125 7.41015625 2.7425 8.5703125 3.125 9.765625 C4 13 4 13 4 17 C3.23034912 17.19110352 2.46069824 17.38220703 1.66772461 17.57910156 C-16.92730875 22.18413211 -16.92730875 22.18413211 -35.45703125 27.04296875 C-39.71642476 28.19352157 -43.9827051 29.31667483 -48.25 30.4375 C-49.04994385 30.64777832 -49.8498877 30.85805664 -50.67407227 31.07470703 C-52.30287541 31.50284957 -53.93170043 31.93090894 -55.56054688 32.35888672 C-59.54063556 33.40489481 -63.52029956 34.45251591 -67.5 35.5 C-69.08333122 35.91667468 -70.66666456 36.33334134 -72.25 36.75 C-73.03375 36.95625 -73.8175 37.1625 -74.625 37.375 C-87.6875 40.8125 -87.6875 40.8125 -100.75 44.25 C-101.92695435 44.5598584 -101.92695435 44.5598584 -103.12768555 44.87597656 C-104.70188997 45.29006183 -106.27627012 45.70347967 -107.85083008 46.11621094 C-111.9505719 47.19180376 -116.04609183 48.28083088 -120.13671875 49.390625 C-120.98234375 49.61814453 -121.82796875 49.84566406 -122.69921875 50.08007812 C-124.30325839 50.51193495 -125.90621914 50.94782926 -127.5078125 51.38867188 C-132.33542175 52.68253903 -137.0272873 53.48189177 -142 54 C-142.50806447 52.27318563 -143.00610467 50.54342021 -143.5 48.8125 C-143.7784375 47.84957031 -144.056875 46.88664062 -144.34375 45.89453125 C-144.96677608 43.14654124 -145.12302812 40.80401584 -145 38 C-140.15706516 36.31382714 -135.27256292 34.97041578 -130.3125 33.6875 C-128.61066326 33.24354259 -126.90884073 32.79953065 -125.20703125 32.35546875 C-124.34158691 32.13036621 -123.47614258 31.90526367 -122.58447266 31.67333984 C-118.55426483 30.6233386 -114.5272222 29.56138319 -110.5 28.5 C-108.91668356 28.08326916 -107.33335018 27.66660266 -105.75 27.25 C-104.96625 27.04375 -104.1825 26.8375 -103.375 26.625 C-82 21 -60.625 15.375 -39.25 9.75 C-38.4650415 9.54342773 -37.68008301 9.33685547 -36.87133789 9.12402344 C-35.30022003 8.71057988 -33.72909384 8.29716802 -32.15795898 7.88378906 C-28.01265718 6.79307887 -23.86753449 5.7016938 -19.72265625 4.609375 C-18.85898437 4.38185547 -17.9953125 4.15433594 -17.10546875 3.91992188 C-15.45046736 3.48392689 -13.79551675 3.04773909 -12.140625 2.61132812 C-11.39425781 2.41474609 -10.64789063 2.21816406 -9.87890625 2.015625 C-8.89772827 1.75700684 -8.89772827 1.75700684 -7.89672852 1.49316406 C-6.9578479 1.24904785 -6.9578479 1.24904785 -6 1 C-5.30124756 0.81405273 -4.60249512 0.62810547 -3.88256836 0.43652344 C-2 0 -2 0 0 0 Z " fill="#F59321" transform="translate(484,359)"/>
<path d="M0 0 C1.98 7.92 1.98 7.92 4 16 C-0.01393473 17.33797824 -3.88471071 18.54045455 -7.96484375 19.5859375 C-9.08697266 19.87484863 -10.20910156 20.16375977 -11.36523438 20.46142578 C-12.54408203 20.76290527 -13.72292969 21.06438477 -14.9375 21.375 C-17.38421186 22.00483057 -19.83082732 22.63503572 -22.27734375 23.265625 C-23.4463623 23.56662109 -24.61538086 23.86761719 -25.81982422 24.17773438 C-30.69480843 25.43820934 -35.5585364 26.738306 -40.421875 28.04296875 C-47.12895465 29.83689289 -53.84563493 31.59455029 -60.56054688 33.35888672 C-64.54063556 34.40489481 -68.52029956 35.45251591 -72.5 36.5 C-74.08333122 36.91667468 -75.66666456 37.33334134 -77.25 37.75 C-78.03375 37.95625 -78.8175 38.1625 -79.625 38.375 C-92.6875 41.8125 -92.6875 41.8125 -105.75 45.25 C-106.53503906 45.45665283 -107.32007813 45.66330566 -108.12890625 45.8762207 C-109.69909215 46.28929988 -111.26940309 46.70190409 -112.83984375 47.11401367 C-117.00052626 48.20653898 -121.15819357 49.3092357 -125.3125 50.42578125 C-126.61477539 50.77382812 -126.61477539 50.77382812 -127.94335938 51.12890625 C-129.61213882 51.57510396 -131.28014879 52.02419241 -132.94726562 52.4765625 C-136.04362532 53.30190343 -138.78039042 54 -142 54 C-142.51265801 52.48338673 -143.00944323 50.96140553 -143.5 49.4375 C-143.7784375 48.59058594 -144.056875 47.74367187 -144.34375 46.87109375 C-145.11075649 43.51544034 -145.10178411 40.43097274 -145 37 C-144.02728149 36.75878418 -144.02728149 36.75878418 -143.03491211 36.51269531 C-131.89723108 33.74774997 -120.76350123 30.9814156 -109.68359375 27.9921875 C-105.37675004 26.83212567 -101.06395363 25.6957788 -96.75 24.5625 C-95.95037842 24.35230225 -95.15075684 24.14210449 -94.3269043 23.92553711 C-92.69777459 23.49731713 -91.06862407 23.06917633 -89.43945312 22.64111328 C-85.45936444 21.59510519 -81.47970044 20.54748409 -77.5 19.5 C-75.91666878 19.08332532 -74.33333544 18.66665866 -72.75 18.25 C-71.96625 18.04375 -71.1825 17.8375 -70.375 17.625 C-44.25 10.75 -44.25 10.75 -41.87182617 10.12426758 C-40.29900468 9.71029902 -38.72625 9.2960765 -37.15356445 8.8815918 C-33.03493038 7.79648109 -28.91499926 6.71667361 -24.79296875 5.64453125 C-23.93832031 5.42152344 -23.08367187 5.19851562 -22.203125 4.96875 C-20.57464657 4.54392954 -18.94576483 4.12065087 -17.31640625 3.69921875 C-14.07640632 2.85252887 -10.92940907 1.97499016 -7.76953125 0.85546875 C-5 0 -5 0 0 0 Z " fill="#F59321" transform="translate(431,155)"/>
<path d="M0 0 C1.96529009 3.45207476 2.7746477 6.88476226 3.625 10.75 C3.88539063 11.92046875 4.14578125 13.0909375 4.4140625 14.296875 C4.60742188 15.18890625 4.80078125 16.0809375 5 17 C4.351521 17.16081055 3.70304199 17.32162109 3.03491211 17.48730469 C-8.10276892 20.25225003 -19.23649877 23.0185844 -30.31640625 26.0078125 C-34.62324996 27.16787433 -38.93604637 28.3042212 -43.25 29.4375 C-44.04962158 29.64769775 -44.84924316 29.85789551 -45.6730957 30.07446289 C-47.30222541 30.50268287 -48.93137593 30.93082367 -50.56054688 31.35888672 C-54.54063556 32.40489481 -58.52029956 33.45251591 -62.5 34.5 C-64.08333122 34.91667468 -65.66666456 35.33334134 -67.25 35.75 C-68.03375 35.95625 -68.8175 36.1625 -69.625 36.375 C-95.75 43.25 -95.75 43.25 -98.12817383 43.87573242 C-99.70099532 44.28970098 -101.27375 44.7039235 -102.84643555 45.1184082 C-106.96506962 46.20351891 -111.08500074 47.28332639 -115.20703125 48.35546875 C-116.06167969 48.57847656 -116.91632813 48.80148438 -117.796875 49.03125 C-119.42535343 49.45607046 -121.05423517 49.87934913 -122.68359375 50.30078125 C-125.95614325 51.15597711 -129.15641189 52.05286395 -132.36328125 53.13671875 C-135.07100679 54.02324815 -137.17179374 54.16636507 -140 54 C-140.33 54.99 -140.66 55.98 -141 57 C-142.32 51.06 -143.64 45.12 -145 39 C-143.27136719 38.55269531 -141.54273438 38.10539062 -139.76171875 37.64453125 C-126.91656462 34.3187517 -114.07507909 30.98039215 -101.24609375 27.59277344 C-97.33131777 26.55961299 -93.41559745 25.53004186 -89.5 24.5 C-87.91666245 24.08334934 -86.33332911 23.6666827 -84.75 23.25 C-56.25 15.75 -56.25 15.75 -53.87548828 15.12524414 C-52.29045142 14.70805201 -50.70549056 14.29057103 -49.12060547 13.87280273 C-45.18890476 12.83680646 -41.25605796 11.80568699 -37.3203125 10.78515625 C-28.6649759 8.53514674 -20.03934275 6.19726619 -11.4375 3.75 C-10.52629395 3.49162354 -9.61508789 3.23324707 -8.67626953 2.96704102 C-7.41145752 2.60437134 -7.41145752 2.60437134 -6.12109375 2.234375 C-5.3727124 2.02006836 -4.62433105 1.80576172 -3.85327148 1.58496094 C-1.93430978 1.03267657 -1.93430978 1.03267657 0 0 Z " fill="#B4B2B0" transform="translate(426,138)"/>
<path d="M0 0 C45.21 0 90.42 0 137 0 C137 5.61 137 11.22 137 17 C91.79 17 46.58 17 0 17 C0 11.39 0 5.78 0 0 Z " fill="#003D5C" transform="translate(0,384)"/>
<path d="M0 0 C42.57 0 85.14 0 129 0 C129 5.61 129 11.22 129 17 C86.76 17 44.52 17 1 17 C1 22.61 1 28.22 1 34 C0.67 34 0.34 34 0 34 C0 22.78 0 11.56 0 0 Z " fill="#603914" transform="translate(136,94)"/>
<path d="M0 0 C42.57 0 85.14 0 129 0 C129 5.61 129 11.22 129 17 C86.43 17 43.86 17 0 17 C0 11.39 0 5.78 0 0 Z " fill="#623A14" transform="translate(136,444)"/>
<path d="M0 0 C42.57 0 85.14 0 129 0 C129 5.61 129 11.22 129 17 C86.43 17 43.86 17 0 17 C0 11.39 0 5.78 0 0 Z " fill="#623A14" transform="translate(136,51)"/>
<path d="M0 0 C42.24 0 84.48 0 128 0 C128 5.61 128 11.22 128 17 C85.76 17 43.52 17 0 17 C0 11.39 0 5.78 0 0 Z " fill="#FCC95A" transform="translate(137,427)"/>
</svg>
